<!-- icon666.com - MILLIONS vector ICONS FREE --><svg clip-rule="evenodd" fill-rule="evenodd" stroke-linejoin="round" stroke-miterlimit="2" viewBox="0 0 32 32" xmlns="http://www.w3.org/2000/svg"><g transform="translate(-111 -148)"><g id="Layer2"><g transform="matrix(0 1 -1 0 143.319 148)"><path d="m16 2.319c-7.727 0-14 6.273-14 14s6.273 14 14 14 14-6.273 14-14-6.273-14-14-14zm0 2c6.623 0 12 5.377 12 12s-5.377 12-12 12-12-5.377-12-12 5.377-12 12-12z" fill="#000000" style="fill: black;"></path></g><g transform="matrix(1.997 0 0 1.563 88.567 146.302)"><path d="m16.279 13.7c2.118-2.705 1.833-2.341 2.794-3.569.047-.06.111-.094.177-.094s.13.034.177.094c.935 1.195 2.779 3.551 2.779 3.551.195.25.513.25.708 0 .196-.25.196-.655 0-.905 0 0-1.843-2.356-2.779-3.551-.235-.3-.553-.468-.885-.468s-.65.168-.885.468c-.961 1.228-.677.865-2.794 3.57-.195.249-.195.655 0 .904.196.25.513.25.708 0z" fill="#000000" style="fill: black;"></path></g></g></g></svg>